<svg xmlns="http://www.w3.org/2000/svg" viewBox="0 0 48 48" width="512" height="512">
  <defs>
    <linearGradient id="g" x1="0" y1="0" x2="1" y2="1">
      <stop offset="0" stop-color="#22d3ee"/>
      <stop offset="1" stop-color="#a855f7"/>
    </linearGradient>
  </defs>
  <rect width="48" height="48" rx="11" fill="#0a0e16"/>
  <g transform="translate(24 24) scale(0.84) translate(-24 -24)">
    <path d="M24 2 L46 24 L24 46 L2 24 Z" fill="url(#g)"/>
    <g stroke="#0a0e16" stroke-width="2.4" stroke-linejoin="round" stroke-linecap="round" fill="none">
      <path d="M21.6 9.4 L7 24 L24 41 L41 24 L26.4 9.4"/>
      <path d="M24 9.4 V13"/>
      <path d="M21.9 33.1 L13 24 L24 13 L35 24 L26.1 33.1"/>
      <path d="M24 33.1 V30"/>
      <path d="M22.4 19.6 L19 24 L24 29 L29 24 L25.6 19.6"/>
    </g>
    <path d="M24 21.6 L26.4 24 L24 26.4 L21.6 24 Z" fill="#0a0e16"/>
  </g>
</svg>
